{"glyphs":{"0":{"ha":1017,"x_min":37,"x_max":1067,"o":"m 159 652 q 677 949 301 949 q 1067 652 1053 949 l 1020 652 q 1003 475 1024 574 q 966 348 989 406 l 1014 348 q 475 0 881 0 q 84 348 68 0 l 37 348 q 54 475 39 406 q 112 652 75 574 l 159 652 m 693 652 q 619 678 667 678 q 534 652 571 678 l 487 652 q 393 475 420 606 q 386 348 376 396 l 433 348 q 532 271 449 271 q 664 348 616 271 l 616 348 q 664 475 647 396 q 646 652 692 606 l 693 652 z "},"1":{"ha":543,"x_min":62,"x_max":677,"o":"m 471 299 l 538 299 l 475 0 l 136 0 l 199 299 l 132 299 l 197 610 l 62 610 l 71 652 l 138 652 l 173 814 q 338 949 309 814 l 677 949 l 614 652 l 546 652 l 471 299 z "},"2":{"ha":949,"x_min":0,"x_max":1074,"o":"m 340 318 l 408 318 q 406 311 406 315 l 397 271 l 939 271 l 882 0 l 0 0 l 66 311 l 68 318 l 0 318 q 469 610 66 610 l 536 610 q 610 638 604 610 q 611 652 612 646 l 679 652 q 619 678 673 678 l 144 678 l 202 949 l 677 949 q 1020 652 1074 949 l 952 652 q 949 638 951 646 q 479 339 886 339 l 411 339 q 340 318 352 339 z "},"3":{"ha":949,"x_min":0,"x_max":1084,"o":"m 680 652 q 619 678 678 678 l 144 678 l 202 949 l 677 949 q 1026 678 1084 949 q 1020 652 1023 665 l 952 652 q 779 475 906 475 q 879 314 900 475 l 947 314 q 939 271 944 294 q 475 0 882 0 l 0 0 l 58 271 l 532 271 q 608 305 600 271 q 608 314 608 310 l 541 314 q 479 339 537 339 l 140 339 l 197 610 l 536 610 q 612 644 604 610 q 612 652 612 648 l 680 652 z "},"4":{"ha":1017,"x_min":8,"x_max":1084,"o":"m 178 649 l 270 949 l 609 949 l 517 649 l 450 649 l 397 475 l 576 475 l 613 649 l 681 649 l 745 949 l 1084 949 l 1020 649 l 952 649 l 915 475 l 983 475 l 948 311 l 1016 311 l 993 203 l 925 203 l 882 0 l 543 0 l 586 203 l 43 203 l 76 311 l 8 311 l 111 649 l 178 649 z "},"5":{"ha":949,"x_min":0,"x_max":1084,"o":"m 140 660 l 202 949 l 1084 949 l 1026 678 l 484 678 l 479 660 l 412 660 l 401 610 l 536 610 q 880 311 943 610 q 878 303 880 307 l 946 303 q 475 0 876 0 l 0 0 l 58 271 l 532 271 q 606 303 593 271 l 538 303 q 541 311 541 307 q 479 339 547 339 l 4 339 l 73 660 l 140 660 z "},"6":{"ha":949,"x_min":-5,"x_max":1084,"o":"m 602 296 l 534 296 q 541 311 539 302 q 479 339 547 339 l 343 339 q 345 296 338 312 l 413 296 q 465 271 424 271 l 532 271 q 602 296 585 271 m 136 642 q 609 949 204 949 l 1084 949 l 1026 678 l 551 678 q 480 642 502 678 l 412 642 q 401 610 405 629 l 536 610 q 880 311 943 610 q 877 296 879 303 l 945 296 q 475 0 871 0 l 407 0 q 63 296 10 0 l -5 296 q -1 311 -3 303 l 68 638 q 68 642 68 640 l 136 642 z "},"7":{"ha":949,"x_min":68,"x_max":1084,"o":"m 530 303 l 598 303 q 407 0 469 153 l 68 0 q 227 303 130 162 l 159 303 q 503 656 296 501 l 571 656 l 601 678 l 144 678 l 202 949 l 1084 949 l 1026 678 q 996 656 1010 667 l 928 656 q 530 303 682 481 z "},"8":{"ha":949,"x_min":-3,"x_max":1084,"o":"m 606 299 l 538 299 q 540 305 539 302 q 479 339 547 339 l 411 339 q 336 305 343 339 q 336 299 336 302 l 404 299 q 465 271 403 271 l 532 271 q 606 299 594 271 m 680 649 q 619 678 682 678 l 551 678 q 477 649 488 678 l 410 649 q 408 644 409 647 q 469 610 401 610 l 536 610 q 612 644 604 610 q 612 649 612 647 l 680 649 m 139 649 q 144 678 141 663 q 609 949 202 949 l 677 949 q 1026 678 1084 949 q 1019 649 1023 663 l 951 649 q 779 475 905 475 q 877 299 905 475 l 945 299 q 939 271 943 286 q 475 0 882 0 l 407 0 q 58 271 0 0 q 64 299 61 286 l -3 299 q 169 475 43 475 q 71 649 43 475 l 139 649 z "},"9":{"ha":949,"x_min":0,"x_max":1082,"o":"m 878 299 l 945 299 q 475 0 873 0 l 0 0 l 58 271 l 532 271 q 597 299 576 271 l 530 299 q 547 339 541 315 l 411 339 q 68 638 4 339 q 68 642 68 640 l 136 642 q 609 949 204 949 l 677 949 q 1018 642 1082 949 l 950 642 q 949 638 950 640 l 880 311 l 878 299 m 408 642 q 407 638 408 640 q 469 610 401 610 l 604 610 q 606 642 608 628 l 674 642 q 619 678 669 678 l 551 678 q 475 642 486 678 l 408 642 z "},"\u0000":{"ha":0,"x_min":0,"x_max":0,"o":""}," ":{"ha":345,"x_min":0,"x_max":0,"o":""},"!":{"ha":407,"x_min":0,"x_max":541,"o":"m 138 649 l 202 949 l 541 949 l 477 649 l 409 649 l 343 339 l 4 339 l 70 649 l 138 649 m 397 271 l 339 0 l 0 0 l 58 271 l 397 271 z "},"\"":{"ha":814,"x_min":144,"x_max":948,"o":"m 541 949 l 498 746 q 319 543 484 678 l 251 543 q 159 746 144 678 l 202 949 l 541 949 m 948 949 l 905 746 q 726 543 890 678 l 658 543 q 566 746 551 678 l 609 949 l 948 949 z "},"#":{"ha":1017,"x_min":-3,"x_max":1122,"o":"m 454 543 l 426 407 l 562 407 l 590 543 l 454 543 m 137 645 l 173 814 l 241 814 l 270 949 l 609 949 l 580 814 l 715 814 l 745 949 l 1084 949 l 1055 814 l 1122 814 l 1086 645 l 1019 645 l 997 543 l 929 543 l 901 407 l 968 407 l 946 303 l 1014 303 l 979 136 l 911 136 l 882 0 l 543 0 l 572 136 l 436 136 l 407 0 l 68 0 l 97 136 l 29 136 l 64 303 l -3 303 l 19 407 l 87 407 l 115 543 l 47 543 l 69 645 l 137 645 z "},"$":{"ha":949,"x_min":0,"x_max":1084,"o":"m 881 314 l 949 314 q 948 311 948 313 q 684 26 901 91 l 664 -68 l 460 -68 l 475 0 l 407 0 l 393 -68 l 189 -68 l 203 0 l 0 0 l 58 271 l 532 271 q 609 311 600 271 q 610 314 609 313 l 542 314 q 479 339 543 339 l 411 339 q 68 637 5 339 l 136 637 l 136 638 q 399 923 182 859 l 420 1017 l 623 1017 l 609 949 l 677 949 l 691 1017 l 895 1017 l 880 949 l 1084 949 l 1026 678 l 551 678 q 475 638 484 678 l 475 637 l 407 637 q 469 610 401 610 l 536 610 q 881 314 941 610 z "},"%":{"ha":882,"x_min":-97,"x_max":1112,"o":"m 490 307 l 557 307 l 532 271 l 242 -136 l -97 -136 l 218 307 l 151 307 l 397 652 l 465 652 l 484 678 l 773 1085 l 1112 1085 l 804 652 l 736 652 l 490 307 m 541 949 l 484 678 l 144 678 l 202 949 l 541 949 m 871 271 l 814 0 l 475 0 l 532 271 l 871 271 z "},"&":{"ha":949,"x_min":-5,"x_max":948,"o":"m 808 292 l 876 292 l 871 271 l 939 271 l 882 0 l 407 0 q 58 271 0 0 q 62 292 60 281 l -5 292 q 169 475 40 475 q 71 649 43 475 l 139 649 q 144 678 141 663 q 609 949 202 949 l 948 949 l 890 678 l 551 678 q 477 649 488 678 l 410 649 q 408 644 409 647 q 469 610 401 610 l 943 610 l 886 339 l 818 339 l 808 292 m 337 292 l 405 292 q 465 271 412 271 l 532 271 l 536 292 l 469 292 l 479 339 l 411 339 q 336 305 343 339 q 337 292 335 298 z "},"'":{"ha":407,"x_min":144,"x_max":541,"o":"m 541 949 l 498 746 q 319 543 484 678 l 251 543 q 159 746 144 678 l 202 949 l 541 949 z "},"(":{"ha":543,"x_min":-6,"x_max":705,"o":"m 138 649 q 705 1085 250 1085 l 648 814 q 478 649 526 814 l 410 649 q 401 610 405 631 l 343 339 q 334 284 337 309 l 402 284 q 504 136 388 136 l 446 -136 q 62 284 -1 -136 l -6 284 q 4 339 -2 311 l 62 610 q 71 649 66 630 l 138 649 z "},")":{"ha":543,"x_min":-29,"x_max":684,"o":"m 273 652 q 173 814 294 814 l 231 1085 q 612 652 684 1085 l 545 652 q 536 610 541 632 l 479 339 q 463 277 472 307 l 531 277 q -29 -136 414 -136 l 29 136 q 191 277 142 136 l 123 277 q 140 339 133 305 l 197 610 q 205 652 202 633 l 273 652 z "},"*":{"ha":746,"x_min":31,"x_max":844,"o":"m 141 649 l 121 663 l 306 897 l 385 845 l 408 949 l 679 949 l 656 845 l 758 897 l 844 663 l 817 649 l 749 649 l 674 610 l 753 558 l 568 323 l 489 376 l 467 271 l 195 271 l 218 376 l 116 323 l 31 558 l 132 610 l 73 649 l 141 649 z "},"+":{"ha":814,"x_min":31,"x_max":845,"o":"m 777 467 l 845 467 l 818 339 l 614 339 l 572 136 l 233 136 l 275 339 l 72 339 l 99 467 l 31 467 l 62 610 l 265 610 l 309 814 l 648 814 l 604 610 l 808 610 l 777 467 z "},",":{"ha":407,"x_min":-43,"x_max":397,"o":"m 136 0 l 0 0 l 58 271 l 397 271 l 339 0 q -43 -203 296 -203 l -14 -68 q 136 0 121 -68 z "},"-":{"ha":746,"x_min":34,"x_max":780,"o":"m 712 478 l 780 478 l 750 339 l 72 339 l 102 478 l 34 478 l 62 610 l 740 610 l 712 478 z "},".":{"ha":407,"x_min":0,"x_max":397,"o":"m 397 271 l 339 0 l 0 0 l 58 271 l 397 271 z "},"/":{"ha":882,"x_min":-97,"x_max":1112,"o":"m 490 307 l 557 307 l 242 -136 l -97 -136 l 218 307 l 151 307 l 400 656 l 468 656 l 773 1085 l 1112 1085 l 807 656 l 739 656 l 490 307 z "},":":{"ha":407,"x_min":29,"x_max":512,"o":"m 426 407 l 368 136 l 29 136 l 87 407 l 426 407 m 512 814 l 454 543 l 115 543 l 173 814 l 512 814 z "},";":{"ha":407,"x_min":-14,"x_max":512,"o":"m 165 136 l 29 136 l 87 407 l 426 407 l 368 136 q -14 -68 325 -68 l 14 68 q 165 136 149 68 m 512 814 l 454 543 l 115 543 l 173 814 l 512 814 z "},"<":{"ha":1017,"x_min":4,"x_max":1152,"o":"m 201 634 l 1152 949 l 1084 634 l 1016 634 l 1011 610 l 508 475 l 954 339 l 944 296 l 1012 296 l 949 0 l 184 296 l 117 296 l 4 339 l 62 610 l 133 634 l 201 634 z "},"=":{"ha":746,"x_min":29,"x_max":851,"o":"m 851 814 l 793 543 l 115 543 l 173 814 l 851 814 m 765 407 l 707 136 l 29 136 l 87 407 l 765 407 z "},">":{"ha":1017,"x_min":-11,"x_max":1028,"o":"m 134 630 l 202 949 l 1028 630 l 960 630 l 1011 610 l 954 339 l 745 270 l 813 270 l 0 0 l 57 270 l -11 270 l 4 339 l 508 475 l 62 610 l 66 630 l 134 630 z "},"?":{"ha":949,"x_min":136,"x_max":1072,"o":"m 677 656 q 619 678 669 678 l 144 678 l 202 949 l 677 949 q 1021 656 1072 949 l 953 656 q 949 638 951 648 q 479 339 886 339 l 140 339 l 197 610 l 536 610 q 610 638 604 610 q 610 656 612 649 l 677 656 m 532 271 l 475 0 l 136 0 l 193 271 l 532 271 z "},"@":{"ha":1017,"x_min":13,"x_max":1054,"o":"m 591 545 q 533 591 582 591 q 431 474 456 591 q 484 357 406 357 q 560 404 532 357 l 591 545 m 328 660 l 262 660 q 169 475 191 578 q 181 296 148 375 l 245 296 q 237 474 212 361 q 328 660 262 593 m 827 296 l 809 296 l 804 271 q 827 296 816 283 m 313 296 l 249 296 q 286 235 262 264 q 504 136 363 136 q 722 203 620 136 l 586 203 l 600 271 q 518 202 586 203 q 313 296 359 202 m 176 660 q 311 810 229 742 q 677 949 480 949 q 983 810 873 949 q 1054 660 1036 742 l 986 660 q 983 475 1004 574 q 911 296 962 378 l 979 296 q 840 139 926 210 q 475 0 671 0 q 169 139 278 0 q 96 296 113 210 l 28 296 q 33 475 13 378 q 109 660 54 574 l 176 660 m 900 660 q 890 679 896 669 l 886 660 l 900 660 m 832 660 l 819 660 l 741 296 l 759 296 q 847 475 825 375 q 832 660 869 578 m 396 660 q 634 746 481 746 q 687 679 701 746 l 701 747 l 836 747 q 648 814 763 814 q 387 715 507 814 q 330 660 355 688 l 396 660 z "},"A":{"ha":1017,"x_min":-73,"x_max":949,"o":"m 490 339 l 479 475 l 407 339 l 490 339 m 319 637 l 510 949 l 802 949 l 850 637 l 783 637 l 840 270 l 907 270 l 949 0 l 585 0 l 578 68 l 329 68 l 292 0 l -73 0 l 93 270 l 25 270 l 251 637 l 319 637 z "},"B":{"ha":949,"x_min":0,"x_max":1084,"o":"m 607 318 l 539 318 q 479 339 532 339 l 343 339 l 338 318 l 406 318 l 397 271 l 532 271 q 608 305 600 271 q 607 318 609 313 m 678 660 q 619 678 669 678 l 484 678 l 479 660 l 412 660 l 401 610 l 536 610 q 612 644 604 610 q 610 660 614 653 l 678 660 m 140 660 l 202 949 l 677 949 q 1026 678 1084 949 q 1022 660 1024 669 l 954 660 q 779 475 909 475 q 880 318 899 475 l 947 318 q 939 271 945 296 q 475 0 882 0 l 0 0 l 68 318 l 0 318 l 73 660 l 140 660 z "},"C":{"ha":1017,"x_min":16,"x_max":1079,"o":"m 1000 608 q 994 543 999 577 l 653 543 q 648 608 656 581 l 716 608 q 619 678 699 678 q 492 608 540 678 l 424 608 q 372 475 391 559 q 364 355 357 402 l 432 355 q 532 271 445 271 q 669 355 619 271 l 601 355 q 625 407 614 378 l 966 407 q 949 355 958 380 l 1017 355 q 475 0 886 0 q 84 355 64 0 l 16 355 q 33 475 20 411 q 73 608 49 547 l 140 608 q 677 949 275 949 q 1067 608 1079 949 l 1000 608 z "},"D":{"ha":1017,"x_min":-3,"x_max":1086,"o":"m 927 303 l 995 303 q 475 0 854 0 l 0 0 l 64 303 l -3 303 l 59 597 l 127 597 l 202 949 l 677 949 q 1067 597 1086 949 l 1000 597 q 983 475 997 541 q 927 303 962 379 m 336 303 l 404 303 l 397 271 l 532 271 q 625 303 586 271 l 557 303 q 644 475 617 352 q 651 597 660 549 l 719 597 q 619 678 705 678 l 484 678 l 466 597 l 398 597 l 336 303 z "},"E":{"ha":882,"x_min":-5,"x_max":1016,"o":"m 333 292 l 401 292 l 397 271 l 871 271 l 814 0 l 0 0 l 62 292 l -5 292 l 67 634 l 135 634 l 202 949 l 1016 949 l 958 678 l 484 678 l 474 634 l 406 634 l 401 610 l 876 610 l 818 339 l 343 339 l 333 292 z "},"F":{"ha":882,"x_min":-6,"x_max":1016,"o":"m 332 288 l 400 288 l 339 0 l 0 0 l 62 288 l -6 288 l 71 649 l 138 649 l 202 949 l 1016 949 l 958 678 l 484 678 l 477 649 l 410 649 l 401 610 l 876 610 l 818 339 l 343 339 l 332 288 z "},"G":{"ha":1017,"x_min":13,"x_max":1084,"o":"m 625 303 l 557 303 q 590 339 575 318 l 479 339 l 536 610 l 1011 610 l 946 303 l 1014 303 l 949 0 l 610 0 l 625 68 q 475 0 610 0 q 83 303 96 0 l 16 303 q 33 475 13 379 q 85 637 52 565 l 153 637 q 677 949 292 949 l 1084 949 l 1026 678 l 619 678 q 516 637 559 678 l 448 637 q 372 475 396 587 q 385 303 346 352 l 453 303 q 532 271 479 271 q 625 303 586 271 z "},"H":{"ha":1017,"x_min":-7,"x_max":1152,"o":"m 943 288 l 1010 288 l 949 0 l 610 0 l 671 288 l 604 288 l 614 339 l 343 339 l 332 288 l 400 288 l 339 0 l 0 0 l 61 288 l -7 288 l 73 660 l 140 660 l 202 949 l 541 949 l 479 660 l 412 660 l 401 610 l 672 610 l 683 660 l 751 660 l 812 949 l 1152 949 l 1090 660 l 1022 660 l 943 288 z "},"I":{"ha":407,"x_min":-7,"x_max":541,"o":"m 332 288 l 400 288 l 339 0 l 0 0 l 61 288 l -7 288 l 67 634 l 135 634 l 202 949 l 541 949 l 474 634 l 406 634 l 332 288 z "},"J":{"ha":678,"x_min":0,"x_max":812,"o":"m 405 627 l 473 949 l 812 949 l 744 627 l 676 627 l 644 475 q 583 292 622 372 l 650 292 q 136 0 508 0 l 0 0 l 58 271 l 193 271 q 270 292 236 271 l 202 292 q 304 475 275 336 l 337 627 l 405 627 z "},"K":{"ha":1017,"x_min":-5,"x_max":1152,"o":"m 406 634 l 387 544 l 459 634 l 406 634 m 334 292 l 401 292 l 358 407 l 334 292 m 527 634 l 779 949 l 1152 949 l 892 634 l 824 634 l 694 476 l 766 292 l 834 292 l 949 0 l 577 0 l 469 292 l 401 292 l 339 0 l 0 0 l 62 292 l -5 292 l 67 634 l 135 634 l 202 949 l 541 949 l 473 634 l 527 634 z "},"L":{"ha":882,"x_min":-3,"x_max":871,"o":"m 336 307 l 404 307 l 397 271 l 871 271 l 814 0 l 0 0 l 65 307 l -3 307 l 74 667 l 142 667 l 202 949 l 541 949 l 481 667 l 413 667 l 336 307 z "},"M":{"ha":1356,"x_min":0,"x_max":1491,"o":"m 1289 318 l 1356 318 l 1289 0 l 949 0 l 1017 318 l 972 318 l 814 0 l 475 0 l 452 318 l 407 318 l 339 0 l 0 0 l 68 318 l 0 318 l 71 649 l 138 649 l 202 949 l 677 949 l 720 649 l 652 649 l 677 475 l 777 649 l 844 649 l 1016 949 l 1491 949 l 1427 649 l 1359 649 l 1289 318 m 339 318 l 384 318 l 372 475 l 339 318 m 905 318 l 949 318 l 983 475 l 905 318 z "},"N":{"ha":1017,"x_min":-5,"x_max":1152,"o":"m 136 642 l 202 949 l 541 949 l 673 642 l 606 642 l 654 528 l 679 642 l 747 642 l 812 949 l 1152 949 l 1086 642 l 1018 642 l 945 296 l 1013 296 l 949 0 l 610 0 l 483 296 l 415 296 l 361 422 l 334 296 l 402 296 l 339 0 l 0 0 l 63 296 l -5 296 l 68 642 l 136 642 z "},"O":{"ha":1017,"x_min":14,"x_max":1095,"o":"m 721 582 q 619 678 713 678 q 476 582 526 678 l 408 582 q 372 475 386 538 q 378 314 349 364 l 446 314 q 532 271 470 271 q 637 314 595 271 l 570 314 q 644 475 620 364 q 653 582 657 538 l 721 582 m 131 582 q 677 949 259 949 q 1067 582 1095 949 l 999 582 q 983 475 995 532 q 932 314 964 386 l 1000 314 q 475 0 861 0 q 83 314 89 0 l 16 314 q 33 475 14 386 q 63 582 45 532 l 131 582 z "},"P":{"ha":949,"x_min":-4,"x_max":1055,"o":"m 670 299 l 738 299 q 532 271 649 271 l 397 271 l 339 0 l 0 0 l 64 299 l -4 299 l 72 656 l 140 656 l 202 949 l 677 949 q 1019 656 1055 949 l 951 656 q 943 610 949 634 q 670 299 892 368 m 411 656 l 387 543 l 522 543 q 604 610 590 543 q 602 656 611 640 l 669 656 q 619 678 658 678 l 484 678 l 479 656 l 411 656 z "},"Q":{"ha":1017,"x_min":12,"x_max":1068,"o":"m 709 630 q 619 678 685 678 q 509 630 553 678 l 441 630 q 372 475 395 579 q 392 296 344 342 l 460 296 q 532 271 486 271 q 615 296 579 271 l 547 296 q 644 475 615 342 q 641 630 666 579 l 709 630 m 149 630 q 677 949 288 949 q 1068 630 1066 949 l 1000 630 q 983 475 1001 560 q 924 296 962 374 l 991 296 q 713 38 900 106 q 782 -8 727 -8 l 880 -8 l 838 -203 l 741 -203 q 459 0 477 -203 q 84 296 100 6 l 16 296 q 33 475 12 374 q 81 630 52 560 l 149 630 z "},"R":{"ha":949,"x_min":-4,"x_max":1058,"o":"m 749 299 l 817 299 l 882 0 l 543 0 l 484 271 l 397 271 l 339 0 l 0 0 l 64 299 l -4 299 l 71 652 l 139 652 l 202 949 l 677 949 q 1019 652 1058 949 l 951 652 q 943 610 948 632 q 743 329 901 411 l 749 299 m 410 652 l 387 543 l 522 543 q 604 610 590 543 q 604 652 610 636 l 671 652 q 619 678 661 678 l 484 678 l 478 652 l 410 652 z "},"S":{"ha":949,"x_min":0,"x_max":1084,"o":"m 878 299 l 945 299 q 475 0 873 0 l 0 0 l 58 271 l 532 271 q 604 299 589 271 l 536 299 q 541 311 540 304 q 479 339 547 339 l 411 339 q 68 638 4 339 q 72 656 70 648 l 140 656 q 609 949 214 949 l 1084 949 l 1026 678 l 551 678 q 484 656 501 678 l 416 656 q 407 638 409 649 q 469 610 401 610 l 536 610 q 880 311 943 610 l 878 299 z "},"T":{"ha":949,"x_min":144,"x_max":1084,"o":"m 610 314 l 677 314 l 610 0 l 271 0 l 338 314 l 271 314 l 339 637 l 407 637 l 416 678 l 144 678 l 202 949 l 1084 949 l 1026 678 l 755 678 l 746 637 l 678 637 l 610 314 z "},"U":{"ha":1017,"x_min":14,"x_max":1152,"o":"m 136 637 l 202 949 l 541 949 l 475 637 l 407 637 l 372 475 q 378 314 349 364 l 446 314 q 532 271 470 271 q 637 314 595 271 l 570 314 q 644 475 620 364 l 678 637 l 746 637 l 812 949 l 1152 949 l 1085 637 l 1017 637 l 983 475 q 932 314 964 386 l 1000 314 q 475 0 861 0 q 83 314 89 0 l 16 314 q 33 475 14 386 l 68 637 l 136 637 z "},"V":{"ha":1017,"x_min":179,"x_max":1152,"o":"m 247 637 l 202 949 l 541 949 l 564 637 l 496 637 l 508 475 l 589 637 l 657 637 l 812 949 l 1152 949 l 974 637 l 906 637 l 718 307 l 785 307 l 610 0 l 339 0 l 295 307 l 227 307 l 179 637 l 247 637 z "},"W":{"ha":1628,"x_min":179,"x_max":1762,"o":"m 247 637 l 202 949 l 541 949 l 564 637 l 496 637 l 508 475 l 589 637 l 657 637 l 812 949 l 1152 949 l 1175 637 l 1107 637 l 1118 475 l 1200 637 l 1267 637 l 1423 949 l 1762 949 l 1584 637 l 1516 637 l 1330 311 l 1398 311 l 1221 0 l 949 0 l 905 311 l 837 311 l 813 475 l 720 311 l 787 311 l 610 0 l 339 0 l 294 311 l 227 311 l 179 637 l 247 637 z "},"X":{"ha":1017,"x_min":-65,"x_max":1211,"o":"m 290 649 l 159 949 l 572 949 l 636 746 l 798 949 l 1211 949 l 937 649 l 861 649 l 703 476 l 785 288 l 861 288 l 987 0 l 574 0 l 509 203 l 345 0 l -65 0 l 197 288 l 122 288 l 292 475 l 215 649 l 290 649 z "},"Y":{"ha":1017,"x_min":202,"x_max":1152,"o":"m 307 642 l 202 949 l 575 949 l 633 746 l 779 949 l 1152 949 l 915 642 l 847 642 l 661 400 l 641 303 l 709 303 l 644 0 l 305 0 l 370 303 l 302 303 l 322 400 l 239 642 l 307 642 z "},"Z":{"ha":882,"x_min":0,"x_max":1016,"o":"m 458 321 l 526 321 l 465 271 l 871 271 l 814 0 l 0 0 l 58 271 l 119 321 l 51 321 l 461 660 l 529 660 l 551 678 l 144 678 l 202 949 l 1016 949 l 958 678 l 936 660 l 868 660 l 458 321 z "},"[":{"ha":543,"x_min":-29,"x_max":705,"o":"m 339 318 l 407 318 l 368 136 l 504 136 l 446 -136 l -29 -136 l 67 318 l -1 318 l 68 642 l 136 642 l 231 1085 l 705 1085 l 648 814 l 512 814 l 475 642 l 408 642 l 339 318 z "},"\\":{"ha":882,"x_min":163,"x_max":852,"o":"m 660 299 l 728 299 l 852 -136 l 513 -136 l 389 299 l 321 299 l 217 660 l 285 660 l 163 1085 l 502 1085 l 624 660 l 556 660 l 660 299 z "},"]":{"ha":543,"x_min":-29,"x_max":705,"o":"m 473 314 l 541 314 l 446 -136 l -29 -136 l 29 136 l 165 136 l 203 314 l 135 314 l 208 660 l 276 660 l 309 814 l 173 814 l 231 1085 l 705 1085 l 615 660 l 547 660 l 473 314 z "},"^":{"ha":407,"x_min":144,"x_max":541,"o":"m 541 949 l 498 746 q 319 543 484 678 l 251 543 q 159 746 144 678 l 202 949 l 541 949 z "},"_":{"ha":882,"x_min":0,"x_max":871,"o":"m 871 271 l 814 0 l 0 0 l 58 271 l 871 271 z "},"`":{"ha":475,"x_min":202,"x_max":565,"o":"m 541 949 l 559 746 q 441 543 565 678 l 374 543 q 220 746 226 678 l 202 949 l 541 949 z "},"a":{"ha":1017,"x_min":-73,"x_max":949,"o":"m 490 339 l 479 475 l 407 339 l 490 339 m 319 637 l 510 949 l 802 949 l 850 637 l 783 637 l 840 270 l 907 270 l 949 0 l 585 0 l 578 68 l 329 68 l 292 0 l -73 0 l 93 270 l 25 270 l 251 637 l 319 637 z "},"b":{"ha":949,"x_min":0,"x_max":1084,"o":"m 607 318 l 539 318 q 479 339 532 339 l 343 339 l 338 318 l 406 318 l 397 271 l 532 271 q 608 305 600 271 q 607 318 609 313 m 678 660 q 619 678 669 678 l 484 678 l 479 660 l 412 660 l 401 610 l 536 610 q 612 644 604 610 q 610 660 614 653 l 678 660 m 140 660 l 202 949 l 677 949 q 1026 678 1084 949 q 1022 660 1024 669 l 954 660 q 779 475 909 475 q 880 318 899 475 l 947 318 q 939 271 945 296 q 475 0 882 0 l 0 0 l 68 318 l 0 318 l 73 660 l 140 660 z "},"c":{"ha":1017,"x_min":16,"x_max":1079,"o":"m 1000 608 q 994 543 999 577 l 653 543 q 648 608 656 581 l 716 608 q 619 678 699 678 q 492 608 540 678 l 424 608 q 372 475 391 559 q 364 355 357 402 l 432 355 q 532 271 445 271 q 669 355 619 271 l 601 355 q 625 407 614 378 l 966 407 q 949 355 958 380 l 1017 355 q 475 0 886 0 q 84 355 64 0 l 16 355 q 33 475 20 411 q 73 608 49 547 l 140 608 q 677 949 275 949 q 1067 608 1079 949 l 1000 608 z "},"d":{"ha":1017,"x_min":-3,"x_max":1086,"o":"m 927 303 l 995 303 q 475 0 854 0 l 0 0 l 64 303 l -3 303 l 59 597 l 127 597 l 202 949 l 677 949 q 1067 597 1086 949 l 1000 597 q 983 475 997 541 q 927 303 962 379 m 336 303 l 404 303 l 397 271 l 532 271 q 625 303 586 271 l 557 303 q 644 475 617 352 q 651 597 660 549 l 719 597 q 619 678 705 678 l 484 678 l 466 597 l 398 597 l 336 303 z "},"e":{"ha":882,"x_min":-5,"x_max":1016,"o":"m 333 292 l 401 292 l 397 271 l 871 271 l 814 0 l 0 0 l 62 292 l -5 292 l 67 634 l 135 634 l 202 949 l 1016 949 l 958 678 l 484 678 l 474 634 l 406 634 l 401 610 l 876 610 l 818 339 l 343 339 l 333 292 z "},"f":{"ha":882,"x_min":-6,"x_max":1016,"o":"m 332 288 l 400 288 l 339 0 l 0 0 l 62 288 l -6 288 l 71 649 l 138 649 l 202 949 l 1016 949 l 958 678 l 484 678 l 477 649 l 410 649 l 401 610 l 876 610 l 818 339 l 343 339 l 332 288 z "},"g":{"ha":1017,"x_min":13,"x_max":1084,"o":"m 625 303 l 557 303 q 590 339 575 318 l 479 339 l 536 610 l 1011 610 l 946 303 l 1014 303 l 949 0 l 610 0 l 625 68 q 475 0 610 0 q 83 303 96 0 l 16 303 q 33 475 13 379 q 85 637 52 565 l 153 637 q 677 949 292 949 l 1084 949 l 1026 678 l 619 678 q 516 637 559 678 l 448 637 q 372 475 396 587 q 385 303 346 352 l 453 303 q 532 271 479 271 q 625 303 586 271 z "},"h":{"ha":1017,"x_min":-7,"x_max":1152,"o":"m 943 288 l 1010 288 l 949 0 l 610 0 l 671 288 l 604 288 l 614 339 l 343 339 l 332 288 l 400 288 l 339 0 l 0 0 l 61 288 l -7 288 l 73 660 l 140 660 l 202 949 l 541 949 l 479 660 l 412 660 l 401 610 l 672 610 l 683 660 l 751 660 l 812 949 l 1152 949 l 1090 660 l 1022 660 l 943 288 z "},"i":{"ha":407,"x_min":-7,"x_max":541,"o":"m 332 288 l 400 288 l 339 0 l 0 0 l 61 288 l -7 288 l 67 634 l 135 634 l 202 949 l 541 949 l 474 634 l 406 634 l 332 288 z "},"j":{"ha":678,"x_min":0,"x_max":812,"o":"m 405 627 l 473 949 l 812 949 l 744 627 l 676 627 l 644 475 q 583 292 622 372 l 650 292 q 136 0 508 0 l 0 0 l 58 271 l 193 271 q 270 292 236 271 l 202 292 q 304 475 275 336 l 337 627 l 405 627 z "},"k":{"ha":1017,"x_min":-5,"x_max":1152,"o":"m 406 634 l 387 544 l 459 634 l 406 634 m 334 292 l 401 292 l 358 407 l 334 292 m 527 634 l 779 949 l 1152 949 l 892 634 l 824 634 l 694 476 l 766 292 l 834 292 l 949 0 l 577 0 l 469 292 l 401 292 l 339 0 l 0 0 l 62 292 l -5 292 l 67 634 l 135 634 l 202 949 l 541 949 l 473 634 l 527 634 z "},"l":{"ha":882,"x_min":-3,"x_max":871,"o":"m 336 307 l 404 307 l 397 271 l 871 271 l 814 0 l 0 0 l 65 307 l -3 307 l 74 667 l 142 667 l 202 949 l 541 949 l 481 667 l 413 667 l 336 307 z "},"m":{"ha":1356,"x_min":0,"x_max":1491,"o":"m 1289 318 l 1356 318 l 1289 0 l 949 0 l 1017 318 l 972 318 l 814 0 l 475 0 l 452 318 l 407 318 l 339 0 l 0 0 l 68 318 l 0 318 l 71 649 l 138 649 l 202 949 l 677 949 l 720 649 l 652 649 l 677 475 l 777 649 l 844 649 l 1016 949 l 1491 949 l 1427 649 l 1359 649 l 1289 318 m 339 318 l 384 318 l 372 475 l 339 318 m 905 318 l 949 318 l 983 475 l 905 318 z "},"n":{"ha":1017,"x_min":-5,"x_max":1152,"o":"m 136 642 l 202 949 l 541 949 l 673 642 l 606 642 l 654 528 l 679 642 l 747 642 l 812 949 l 1152 949 l 1086 642 l 1018 642 l 945 296 l 1013 296 l 949 0 l 610 0 l 483 296 l 415 296 l 361 422 l 334 296 l 402 296 l 339 0 l 0 0 l 63 296 l -5 296 l 68 642 l 136 642 z "},"o":{"ha":1017,"x_min":14,"x_max":1095,"o":"m 721 582 q 619 678 713 678 q 476 582 526 678 l 408 582 q 372 475 386 538 q 378 314 349 364 l 446 314 q 532 271 470 271 q 637 314 595 271 l 570 314 q 644 475 620 364 q 653 582 657 538 l 721 582 m 131 582 q 677 949 259 949 q 1067 582 1095 949 l 999 582 q 983 475 995 532 q 932 314 964 386 l 1000 314 q 475 0 861 0 q 83 314 89 0 l 16 314 q 33 475 14 386 q 63 582 45 532 l 131 582 z "},"p":{"ha":949,"x_min":-4,"x_max":1055,"o":"m 670 299 l 738 299 q 532 271 649 271 l 397 271 l 339 0 l 0 0 l 64 299 l -4 299 l 72 656 l 140 656 l 202 949 l 677 949 q 1019 656 1055 949 l 951 656 q 943 610 949 634 q 670 299 892 368 m 411 656 l 387 543 l 522 543 q 604 610 590 543 q 602 656 611 640 l 669 656 q 619 678 658 678 l 484 678 l 479 656 l 411 656 z "},"q":{"ha":1017,"x_min":12,"x_max":1068,"o":"m 709 630 q 619 678 685 678 q 509 630 553 678 l 441 630 q 372 475 395 579 q 392 296 344 342 l 460 296 q 532 271 486 271 q 615 296 579 271 l 547 296 q 644 475 615 342 q 641 630 666 579 l 709 630 m 149 630 q 677 949 288 949 q 1068 630 1066 949 l 1000 630 q 983 475 1001 560 q 924 296 962 374 l 991 296 q 713 38 900 106 q 782 -8 727 -8 l 880 -8 l 838 -203 l 741 -203 q 459 0 477 -203 q 84 296 100 6 l 16 296 q 33 475 12 374 q 81 630 52 560 l 149 630 z "},"r":{"ha":949,"x_min":-4,"x_max":1058,"o":"m 749 299 l 817 299 l 882 0 l 543 0 l 484 271 l 397 271 l 339 0 l 0 0 l 64 299 l -4 299 l 71 652 l 139 652 l 202 949 l 677 949 q 1019 652 1058 949 l 951 652 q 943 610 948 632 q 743 329 901 411 l 749 299 m 410 652 l 387 543 l 522 543 q 604 610 590 543 q 604 652 610 636 l 671 652 q 619 678 661 678 l 484 678 l 478 652 l 410 652 z "},"s":{"ha":949,"x_min":0,"x_max":1084,"o":"m 878 299 l 945 299 q 475 0 873 0 l 0 0 l 58 271 l 532 271 q 604 299 589 271 l 536 299 q 541 311 540 304 q 479 339 547 339 l 411 339 q 68 638 4 339 q 72 656 70 648 l 140 656 q 609 949 214 949 l 1084 949 l 1026 678 l 551 678 q 484 656 501 678 l 416 656 q 407 638 409 649 q 469 610 401 610 l 536 610 q 880 311 943 610 l 878 299 z "},"t":{"ha":949,"x_min":144,"x_max":1084,"o":"m 610 314 l 677 314 l 610 0 l 271 0 l 338 314 l 271 314 l 339 637 l 407 637 l 416 678 l 144 678 l 202 949 l 1084 949 l 1026 678 l 755 678 l 746 637 l 678 637 l 610 314 z "},"u":{"ha":1017,"x_min":14,"x_max":1152,"o":"m 136 637 l 202 949 l 541 949 l 475 637 l 407 637 l 372 475 q 378 314 349 364 l 446 314 q 532 271 470 271 q 637 314 595 271 l 570 314 q 644 475 620 364 l 678 637 l 746 637 l 812 949 l 1152 949 l 1085 637 l 1017 637 l 983 475 q 932 314 964 386 l 1000 314 q 475 0 861 0 q 83 314 89 0 l 16 314 q 33 475 14 386 l 68 637 l 136 637 z "},"v":{"ha":1017,"x_min":179,"x_max":1152,"o":"m 247 637 l 202 949 l 541 949 l 564 637 l 496 637 l 508 475 l 589 637 l 657 637 l 812 949 l 1152 949 l 974 637 l 906 637 l 718 307 l 785 307 l 610 0 l 339 0 l 295 307 l 227 307 l 179 637 l 247 637 z "},"w":{"ha":1628,"x_min":179,"x_max":1762,"o":"m 247 637 l 202 949 l 541 949 l 564 637 l 496 637 l 508 475 l 589 637 l 657 637 l 812 949 l 1152 949 l 1175 637 l 1107 637 l 1118 475 l 1200 637 l 1267 637 l 1423 949 l 1762 949 l 1584 637 l 1516 637 l 1330 311 l 1398 311 l 1221 0 l 949 0 l 905 311 l 837 311 l 813 475 l 720 311 l 787 311 l 610 0 l 339 0 l 294 311 l 227 311 l 179 637 l 247 637 z "},"x":{"ha":1017,"x_min":-65,"x_max":1211,"o":"m 290 649 l 159 949 l 572 949 l 636 746 l 798 949 l 1211 949 l 937 649 l 861 649 l 703 476 l 785 288 l 861 288 l 987 0 l 574 0 l 509 203 l 345 0 l -65 0 l 197 288 l 122 288 l 292 475 l 215 649 l 290 649 z "},"y":{"ha":1017,"x_min":202,"x_max":1152,"o":"m 307 642 l 202 949 l 575 949 l 633 746 l 779 949 l 1152 949 l 915 642 l 847 642 l 661 400 l 641 303 l 709 303 l 644 0 l 305 0 l 370 303 l 302 303 l 322 400 l 239 642 l 307 642 z "},"z":{"ha":882,"x_min":0,"x_max":1016,"o":"m 458 321 l 526 321 l 465 271 l 871 271 l 814 0 l 0 0 l 58 271 l 119 321 l 51 321 l 461 660 l 529 660 l 551 678 l 144 678 l 202 949 l 1016 949 l 958 678 l 936 660 l 868 660 l 458 321 z "},"{":{"ha":678,"x_min":4,"x_max":841,"o":"m 275 664 q 280 678 279 671 q 841 1085 366 1085 l 783 814 q 619 678 648 814 q 616 664 618 671 l 548 664 q 444 475 519 549 q 465 271 491 396 q 460 248 462 259 l 528 248 q 640 136 516 136 l 581 -136 q 189 248 121 -136 l 121 248 q 125 271 123 259 q 4 339 140 339 l 62 610 q 208 664 182 610 l 275 664 z "},"|":{"ha":407,"x_min":-29,"x_max":570,"o":"m 334 296 l 401 296 l 310 -136 l -29 -136 l 62 296 l -5 296 l 70 649 l 138 649 l 231 1085 l 570 1085 l 477 649 l 409 649 l 334 296 z "},"}":{"ha":678,"x_min":-29,"x_max":705,"o":"m 278 667 q 280 678 279 673 q 173 814 309 814 l 231 1085 q 619 678 705 1085 q 618 667 618 673 l 550 667 q 672 610 548 610 l 614 339 q 465 271 479 339 q 458 243 462 257 l 526 243 q -29 -136 429 -136 l 29 136 q 186 243 150 136 l 118 243 q 125 271 122 256 q 233 475 152 396 q 210 667 187 550 l 278 667 z "},"~":{"ha":746,"x_min":34,"x_max":780,"o":"m 712 478 l 780 478 l 750 339 l 72 339 l 102 478 l 34 478 l 62 610 l 740 610 l 712 478 z "}}}
